<svg width="23" height="23" viewBox="0 0 23 23" fill="none" xmlns="http://www.w3.org/2000/svg">
<path d="M21.5702 11.7586C21.5384 11.6747 21.5227 11.5874 21.5227 11.5C21.5227 11.412 21.5384 11.3246 21.5702 11.2414L22.4101 9.03631C22.4826 8.84611 22.5177 8.64755 22.5177 8.45264C22.518 7.91173 22.249 7.38988 21.775 7.08018L19.799 5.79043C19.65 5.69295 19.5416 5.54377 19.4952 5.3714L18.8786 3.09377C18.6839 2.37637 18.0337 1.88304 17.2966 1.88241C17.269 1.88241 17.2413 1.88362 17.2134 1.88479L17.255 1.88241L14.8635 2.00248L14.8222 2.00307C14.6561 2.00307 14.4953 1.9466 14.3657 1.84261L12.5283 0.362567C12.229 0.121247 11.8634 -0.000626485 11.5003 2.42158e-06C11.1368 -0.000626485 10.7713 0.121247 10.4714 0.362567L10.4717 0.363196L8.63421 1.84256C8.50493 1.9466 8.34357 2.00302 8.17772 2.00302L8.15094 2.00244L5.78563 1.88474H5.79012C5.75773 1.88295 5.72889 1.88295 5.70333 1.88295C4.96634 1.88295 4.31637 2.37628 4.12172 3.09368L3.50503 5.37131C3.45867 5.54368 3.35023 5.69286 3.20132 5.79034L1.22529 7.08014C0.751278 7.38983 0.482016 7.91227 0.482331 8.45313C0.482331 8.64809 0.51737 8.84602 0.589604 9.03622L1.43005 11.2413C1.46158 11.3245 1.47762 11.4119 1.47762 11.4999C1.47762 11.5873 1.46185 11.6747 1.43005 11.7579L0.589918 13.9636C0.517415 14.1532 0.482331 14.3511 0.482331 14.5461C0.482016 15.087 0.750963 15.6095 1.22529 15.9197L3.20132 17.2096C3.35019 17.3071 3.45867 17.4557 3.50503 17.628L4.12172 19.9056C4.31637 20.6231 4.96661 21.1164 5.70333 21.1164C5.72889 21.1164 5.75593 21.1164 5.78509 21.1146L8.14241 20.9969H8.14686L8.17897 20.9957C8.34393 20.9963 8.5047 21.0528 8.63426 21.1568L10.4718 22.6374C10.7714 22.8787 11.1366 23 11.5004 23C11.8635 23 12.229 22.8787 12.5286 22.6374L14.3662 21.1568C14.4957 21.0522 14.6562 20.9957 14.8214 20.9957L14.8568 20.9969L17.2031 21.114L17.2188 21.1146C17.2432 21.1158 17.2691 21.1164 17.2967 21.1164C18.0334 21.1164 18.684 20.6236 18.8786 19.9056L19.4953 17.628C19.5416 17.4557 19.6499 17.3071 19.7987 17.2096L21.7751 15.9198C22.2491 15.6095 22.518 15.0876 22.5177 14.5468C22.5177 14.3518 22.4826 14.1533 22.4101 13.9631L21.5702 11.7586ZM21.2754 15.1554L19.2997 16.4452C18.963 16.6651 18.719 17.001 18.6138 17.3897L17.9971 19.6667C17.9115 19.9853 17.6223 20.2034 17.2966 20.2034L17.2568 20.2028L14.945 20.0869L14.9049 20.0851C14.8781 20.0839 14.8505 20.0827 14.8213 20.0827C14.448 20.0827 14.0849 20.2105 13.793 20.4459L11.9556 21.9265C11.8221 22.0335 11.6622 22.087 11.5003 22.087C11.338 22.087 11.1781 22.0335 11.0447 21.9265L9.20715 20.4459C8.91529 20.2105 8.55214 20.0827 8.17888 20.0827C8.15449 20.0833 8.1266 20.0833 8.09659 20.0851L5.73985 20.2028L5.70329 20.2034C5.37787 20.204 5.08871 19.9847 5.00309 19.6673L4.38645 17.3891C4.28124 17.001 4.03722 16.6651 3.70022 16.4452L1.72456 15.1554C1.51446 15.0181 1.39559 14.7863 1.39528 14.5462C1.39528 14.46 1.41073 14.3732 1.44281 14.2888L2.28298 12.0837C2.35458 11.8959 2.39057 11.6979 2.39057 11.5C2.39057 11.3021 2.35458 11.1042 2.28298 10.9157L1.44281 8.71116C1.41073 8.62617 1.39528 8.53938 1.39528 8.45318C1.39559 8.21307 1.51414 7.98186 1.72424 7.84453L3.70058 6.55473C4.03727 6.33421 4.28128 5.99838 4.38649 5.61025L5.00313 3.33199C5.08875 3.01462 5.37823 2.79527 5.70333 2.79589L5.73545 2.79652L5.74556 2.79711L8.07134 2.91301L8.09865 2.91417L8.17772 2.91593C8.55129 2.91593 8.91444 2.78875 9.20688 2.55395L11.0444 1.07332L10.7582 0.717899L11.0447 1.07332C11.1781 0.965733 11.3381 0.91286 11.5003 0.912231C11.6623 0.912815 11.8221 0.965733 11.9556 1.07332L13.7934 2.55332C14.0858 2.78929 14.4493 2.91588 14.8223 2.91588C14.8499 2.91588 14.8752 2.9153 14.8981 2.91471L17.2753 2.79585L17.2967 2.79522C17.6221 2.79522 17.9116 3.01457 17.9972 3.33195L18.6139 5.61021C18.7191 5.99833 18.9631 6.33417 19.2998 6.5541L21.2758 7.84449C21.4859 7.98177 21.6048 8.21302 21.6048 8.45255C21.6048 8.53871 21.5896 8.6255 21.5569 8.7117L20.7174 10.9162C20.6454 11.1041 20.6098 11.302 20.6098 11.5C20.6098 11.6979 20.6457 11.8958 20.7174 12.0836L21.5572 14.2882C21.5896 14.3737 21.6048 14.4605 21.6048 14.5467C21.6047 14.7863 21.4858 15.0181 21.2754 15.1554Z" fill="white"/>
<path d="M13.8288 7.38623C13.7384 7.24774 13.5856 7.16333 13.421 7.16333H13.1211C12.9327 7.16333 12.7619 7.2733 12.6822 7.44503L9.13941 15.1517C9.07283 15.2997 9.08357 15.4751 9.17211 15.6135C9.26187 15.752 9.41577 15.8364 9.58072 15.8364H9.87909C10.0681 15.8364 10.2399 15.7271 10.3183 15.5553L13.8617 7.84861C13.9295 7.70069 13.9179 7.52531 13.8288 7.38623Z" fill="white"/>
<path d="M10.1635 10.8278C10.2488 10.5835 10.2747 10.7535 10.2747 9.98374C10.2747 9.21283 10.2488 9.3834 10.1635 9.13736C9.9564 8.52755 9.36887 8.13403 8.58516 8.13403C7.80204 8.13403 7.21572 8.52755 7.00737 9.13736C6.92148 9.38345 6.89682 9.21283 6.89682 9.98374C6.89682 10.7534 6.92148 10.5834 7.00737 10.8278C7.21572 11.44 7.80204 11.8317 8.58516 11.8317C9.36887 11.8316 9.9564 11.44 10.1635 10.8278ZM9.01372 10.5834C8.95191 10.7677 8.79378 10.8646 8.58516 10.8646C8.3774 10.8646 8.21874 10.7677 8.15719 10.5834C8.12036 10.4854 8.10872 10.7291 8.10872 9.98374C8.10872 9.23664 8.12031 9.4803 8.15719 9.3834C8.21874 9.19913 8.3774 9.10111 8.58516 9.10111C8.79378 9.10111 8.95186 9.19918 9.01372 9.3834C9.05082 9.48025 9.06214 9.2366 9.06214 9.98374C9.06214 10.7291 9.05087 10.4854 9.01372 10.5834Z" fill="white"/>
<path d="M14.4148 11.1689C13.6308 11.1689 13.0442 11.5607 12.8359 12.1711C12.7515 12.4171 12.7262 12.2454 12.7262 13.0163C12.7262 13.7872 12.7514 13.6172 12.8359 13.8603C13.0442 14.4731 13.6308 14.866 14.4148 14.866C15.1976 14.866 15.786 14.4731 15.9935 13.8603C16.0791 13.6172 16.1035 13.7872 16.1035 13.0163C16.1035 12.2454 16.0791 12.4171 15.9935 12.1711C15.786 11.5607 15.1976 11.1689 14.4148 11.1689ZM14.8422 13.6172C14.7819 13.8002 14.6232 13.8983 14.4148 13.8983C14.2065 13.8983 14.0475 13.8002 13.986 13.6172C13.9494 13.5197 13.9381 13.7622 13.9381 13.0163C13.9381 12.2691 13.9494 12.514 13.986 12.4171C14.0475 12.2317 14.2065 12.1342 14.4148 12.1342C14.6232 12.1342 14.7819 12.2317 14.8422 12.4171C14.8806 12.514 14.8924 12.2692 14.8924 13.0163C14.8924 13.7622 14.8805 13.5197 14.8422 13.6172Z" fill="white"/>
</svg>
