<svg width="120" height="71" viewBox="0 0 120 71" fill="none" xmlns="http://www.w3.org/2000/svg">
<path d="M8.74001 37.4879C8.24001 37.5082 7.74001 37.3053 7.40001 36.9402C7.04001 36.5953 6.84001 36.1084 6.86001 35.6013V16.6747C6.86001 16.1676 7.06001 15.6807 7.40001 15.3359C7.74001 14.9707 8.24001 14.7476 8.74001 14.7679H20.82C21.32 14.7679 21.8 14.9707 22.14 15.3359C22.5 15.701 22.68 16.1676 22.68 16.6747C22.68 17.7093 21.84 18.5613 20.82 18.5613H10.58V24.2413H19.24C20.26 24.2413 21.1 25.0933 21.1 26.1279C21.12 26.635 20.92 27.1219 20.56 27.487C20.22 27.8522 19.74 28.055 19.24 28.0347H10.58V35.6216C10.58 36.6562 9.76001 37.4879 8.74001 37.4879Z" fill="#583EB1"/>
<path d="M42.02 34.3438C37.56 38.8878 30.32 38.8878 25.84 34.3641L25.82 34.3438C23.62 32.1935 22.4 29.2318 22.44 26.1484C22.44 19.7178 27.56 14.5044 33.88 14.5044C33.9 14.5044 33.9 14.5044 33.92 14.5044C36.96 14.4638 39.9 15.681 42 17.9124C44.2 20.0627 45.4 23.0447 45.36 26.1484C45.42 29.2318 44.2 32.1935 42.02 34.3438ZM28.5 31.6255C31.46 34.6684 36.28 34.709 39.28 31.7067C39.3 31.6864 39.32 31.6661 39.36 31.6255C42.36 28.603 42.36 23.6735 39.38 20.6307L39.36 20.6104C36.38 17.5675 31.52 17.5675 28.52 20.5901L28.5 20.6104C25.5 23.6127 25.46 28.5015 28.42 31.5444C28.44 31.5647 28.46 31.585 28.5 31.6255Z" fill="#583EB1"/>
<path d="M66.28 34.3438C61.82 38.8878 54.56 38.8878 50.1 34.3641L50.08 34.3438C47.88 32.1935 46.66 29.2318 46.7 26.1484C46.7 19.7178 51.82 14.5044 58.14 14.5044C58.16 14.5044 58.16 14.5044 58.18 14.5044C61.22 14.4638 64.16 15.681 66.28 17.9124C68.48 20.0627 69.68 23.0447 69.64 26.1484C69.7 29.2318 68.48 32.1935 66.28 34.3438ZM52.76 31.6255C55.76 34.6684 60.62 34.6684 63.62 31.6255C65.04 30.165 65.86 28.2175 65.86 26.1484C65.9 21.8478 62.48 18.3181 58.22 18.2978C53.98 18.2573 50.5 21.7261 50.48 26.047C50.48 28.1161 51.3 30.1447 52.76 31.6255Z" fill="#583EB1"/>
<path d="M81.62 14.7885C84.6 14.7479 87.46 15.9448 89.54 18.1154C91.74 20.3265 92.84 23.0042 92.84 26.1079C92.82 32.3965 87.82 37.4679 81.62 37.4882H76C75.54 37.4679 75.1 37.2854 74.76 36.9608C74.42 36.6768 74.2 36.2508 74.16 35.8045L74.12 35.7436V16.6751C74.12 16.1679 74.3 15.7014 74.66 15.3362C75.02 14.9711 75.5 14.7682 76 14.7885H81.62ZM81.62 33.7354C83.62 33.7759 85.52 32.9645 86.92 31.5039C88.34 30.0839 89.14 28.1365 89.12 26.1282C89.16 24.1199 88.36 22.1725 86.92 20.7728C85.52 19.3325 83.62 18.5414 81.62 18.5616H77.84V33.6948L81.62 33.7354Z" fill="#583EB1"/>
<path d="M108.6 14.8087C109.08 14.687 109.58 14.7681 110 15.0521C110.4 15.3158 110.7 15.7418 110.8 16.2287C110.92 16.7155 110.84 17.2227 110.56 17.6284L103.72 28.745L103.68 35.5812C103.68 36.0884 103.48 36.5752 103.12 36.9201C102.76 37.2852 102.3 37.4881 101.8 37.4678C100.78 37.4678 99.94 36.6158 99.94 35.5812L99.98 28.745L93.04 17.6487C92.76 17.2227 92.68 16.7155 92.8 16.2287C92.9 15.7418 93.2 15.3158 93.62 15.0521C94.04 14.7681 94.54 14.687 95.02 14.8087C95.5 14.9101 95.94 15.2144 96.2 15.6404L101.82 24.6472L107.42 15.6404C107.7 15.2144 108.12 14.9101 108.6 14.8087Z" fill="#583EB1"/>
<path d="M37.86 40.4089C37.86 40.0641 38.14 39.8004 38.48 39.8206C38.58 39.8206 38.68 39.8612 38.78 39.9018C40.7 41.0784 43.14 41.9304 46.32 41.9304C49.5 41.9304 51.9 41.0986 53.8 39.9018C54.08 39.7192 54.46 39.8206 54.62 40.1046C54.68 40.1858 54.7 40.3075 54.7 40.4089C54.7 40.5915 54.6 40.7741 54.46 40.8958C52.76 42.1738 50.18 43.4518 46.3 43.4518C42.42 43.4518 39.86 42.1738 38.1 40.8958C37.94 40.7741 37.84 40.5915 37.86 40.4089Z" fill="#412F7E"/>
<path d="M80.3 39.8818H104.96C109.46 39.8818 113.12 43.5941 113.12 48.1584C113.12 52.7227 109.46 56.435 104.96 56.435H80.3C75.8 56.435 72.14 52.7227 72.14 48.1584C72.14 43.5941 75.8 39.8818 80.3 39.8818Z" fill="#412F7E"/>
<path d="M79.72 51.891C79.36 52.2764 78.78 52.2764 78.4 51.9315C78.38 51.9315 78.38 51.9113 78.36 51.891C78.18 51.7084 78.08 51.465 78.08 51.2013C78.08 50.6738 78.5 50.2275 79.04 50.2275C79.56 50.2275 80 50.6535 80 51.2013C80 51.465 79.9 51.7084 79.72 51.891Z" fill="white"/>
<path d="M82.82 51.9315C82.48 52.2764 81.92 52.2764 81.56 51.9315C81.38 51.7693 81.3 51.5461 81.3 51.3027V48.0773C81.3 46.2921 82.7 44.8518 84.46 44.8315C85.12 44.8315 85.78 45.0344 86.32 45.4401C86.86 45.8458 87.28 46.3935 87.5 47.0427C87.58 47.2658 87.56 47.5295 87.46 47.7324C87.36 47.9555 87.18 48.1178 86.94 48.1787C86.72 48.2598 86.46 48.2395 86.26 48.1381C86.04 48.0367 85.88 47.8541 85.8 47.6107C85.7 47.3267 85.52 47.0833 85.3 46.921C85.06 46.7587 84.78 46.6573 84.5 46.6573C83.72 46.6573 83.1 47.2861 83.1 48.0773V51.3027C83.08 51.5461 82.98 51.7693 82.82 51.9315Z" fill="white"/>
<path d="M94.22 49.1524H94.12L89.8 49.1727C89.9 49.5379 90.12 49.8422 90.42 50.0653C90.74 50.3087 91.12 50.4507 91.5 50.4913C92.2 50.5927 92.92 50.4507 93.52 50.0653C94.1 49.8827 94.48 50.0044 94.62 50.4102C94.7 50.613 94.68 50.8362 94.6 51.039C94.48 51.2622 94.32 51.4244 94.12 51.5462C93.42 52.0939 92.46 52.317 91.26 52.1953C89.38 52.033 87.96 50.4507 87.98 48.5439C87.98 46.5356 89.58 44.8924 91.58 44.8924C92.48 44.8722 93.36 45.217 94.02 45.8662C94.68 46.495 95.04 47.3673 95.02 48.2802C95 48.6859 94.68 49.0713 94.22 49.1524ZM91.56 46.5356C91.16 46.5356 90.76 46.6573 90.44 46.9007C90.12 47.1442 89.88 47.5093 89.8 47.915L93.2 47.8947C93.14 47.5093 92.94 47.1644 92.64 46.921C92.34 46.6573 91.96 46.5356 91.56 46.5356Z" fill="white"/>
<path d="M98.6 52.2357C97.72 52.2357 96.86 52.0126 96.08 51.6068C95.64 51.4243 95.42 50.9171 95.58 50.4709C95.66 50.2477 95.82 50.0651 96.04 49.984C96.26 49.8826 96.5 49.8826 96.72 49.9637C97.12 50.1666 97.54 50.3086 97.98 50.3897C98.32 50.4506 98.68 50.4506 99 50.3694C99.26 50.2883 99.4 50.1666 99.4 49.984C99.4 49.8623 99.3 49.7406 99.1 49.6189C98.88 49.4769 98.62 49.3754 98.36 49.3348C97.38 49.0711 96.68 48.7263 96.3 48.3003C95.94 47.9351 95.74 47.4077 95.78 46.8803C95.82 46.292 96.16 45.7646 96.66 45.44C97.22 45.0546 97.88 44.8517 98.56 44.872C99.28 44.872 99.96 45.0546 100.58 45.3994C100.8 45.4806 100.96 45.6631 101.04 45.8863C101.12 46.1094 101.12 46.3529 101.02 46.576C100.94 46.7789 100.76 46.9614 100.54 47.0426C100.32 47.144 100.08 47.1237 99.88 47.0223C99.56 46.8397 99.2 46.718 98.84 46.6774C98.56 46.6369 98.28 46.6571 98.02 46.7383C97.82 46.8194 97.72 46.9209 97.7 47.0628C97.7 47.144 97.72 47.2048 97.76 47.2657C97.86 47.3671 97.96 47.4483 98.08 47.5091C98.28 47.6106 98.48 47.6917 98.7 47.7323C100.44 48.2191 101.32 48.9697 101.32 50.0043C101.32 50.5926 101.06 51.1606 100.62 51.546C100.16 51.972 99.48 52.1951 98.6 52.2357Z" fill="white"/>
<path d="M106.06 50.9578C106.26 50.9578 106.48 51.0187 106.64 51.1404C106.78 51.2418 106.88 51.4041 106.88 51.5664C106.88 51.749 106.78 51.9113 106.64 52.0127C106.46 52.1344 106.26 52.1953 106.06 52.1953H105.86C105.06 52.2155 104.28 51.9924 103.6 51.5461C102.96 51.1404 102.6 50.4304 102.64 49.6595V45.4401C102.64 45.2575 102.74 45.0953 102.88 45.0141C103.06 44.8924 103.26 44.8315 103.46 44.8315C103.68 44.8315 103.88 44.8924 104.06 45.0141C104.2 45.1155 104.3 45.2778 104.3 45.4401V47.205H105.8C106 47.205 106.18 47.2658 106.34 47.3673C106.48 47.4484 106.56 47.6107 106.56 47.773C106.56 47.9353 106.48 48.0975 106.34 48.1787C106.18 48.3004 106 48.341 105.8 48.341H104.3V49.6393C104.3 49.9841 104.44 50.3087 104.68 50.5521C104.94 50.7955 105.32 50.9173 105.84 50.9173L106.06 50.9578Z" fill="white"/>
<path d="M33.92 29.475C35.7425 29.475 37.22 27.9765 37.22 26.1279C37.22 24.2793 35.7425 22.7808 33.92 22.7808C32.0975 22.7808 30.62 24.2793 30.62 26.1279C30.62 27.9765 32.0975 29.475 33.92 29.475Z" fill="#0F0F0F"/>
<path d="M58.18 29.475C60.0025 29.475 61.48 27.9765 61.48 26.1279C61.48 24.2793 60.0025 22.7808 58.18 22.7808C56.3575 22.7808 54.88 24.2793 54.88 26.1279C54.88 27.9765 56.3575 29.475 58.18 29.475Z" fill="#0F0F0F"/>
</svg>
