<svg width="158" height="148" viewBox="0 0 158 148" fill="none" xmlns="http://www.w3.org/2000/svg">
<path fill-rule="evenodd" clip-rule="evenodd" d="M91.0804 -6.2336C104.036 6.447 129.104 5.08012 136.128 21.7921C143.209 38.6416 137.568 60.9681 124.825 74.0598C112.506 86.7157 91.1137 79.667 74.3568 85.2519C60.6043 89.8355 50.5001 105.469 36.1189 103.625C21.6367 101.768 15.2519 84.6569 3.38216 76.1501C-12.8591 64.5105 -43.938 64.6648 -45.9748 44.7904C-48.0317 24.7204 -16.1703 19.3488 -4.09471 3.19339C5.35602 -9.45031 3.46372 -28.9458 16.1558 -38.3313C29.8149 -48.4319 49.3345 -54.5598 64.9557 -47.8677C80.3928 -41.2544 79.0775 -17.9814 91.0804 -6.2336Z" stroke="#583EB1"/>
<path fill-rule="evenodd" clip-rule="evenodd" d="M83.9051 1.30863C94.6368 11.8087 115.445 10.6319 121.246 24.4871C127.095 38.4564 122.375 56.9919 111.776 67.8766C101.53 78.3991 83.7869 72.5866 69.8695 77.2492C58.4474 81.0759 50.0345 94.0653 38.1015 92.5594C26.0846 91.0429 20.8143 76.8557 10.9771 69.8172C-2.48318 60.1865 -28.2785 60.3673 -29.9353 43.8795C-31.6084 27.2294 -5.15482 22.7182 4.89516 9.29239C12.7606 -1.21505 11.2231 -17.3887 21.7732 -25.198C33.1273 -33.6024 49.3386 -38.7203 62.2926 -33.1939C75.0939 -27.7326 73.9628 -8.41898 83.9051 1.30863Z" stroke="#FFC14F" stroke-width="6"/>
<path fill-rule="evenodd" clip-rule="evenodd" d="M49.125 -8.17224C57.3861 -0.0894891 73.4041 -0.995321 77.8697 9.67018C82.372 20.4235 78.7388 34.6918 70.5799 43.0707C62.6925 51.1708 49.034 46.6964 38.3206 50.2856C29.528 53.2313 23.052 63.2303 13.8661 62.0711C4.61568 60.9037 0.558749 49.9827 -7.01383 44.5646C-17.3753 37.151 -37.2321 37.2902 -38.5075 24.5981C-39.7954 11.7812 -19.4319 8.30849 -11.6956 -2.02648C-5.64091 -10.1149 -6.82445 -22.5651 1.2969 -28.5766C10.037 -35.0462 22.5162 -38.9859 32.4881 -34.7317C42.3423 -30.5277 41.4716 -15.6604 49.125 -8.17224Z" stroke="#201A19" stroke-width="2"/>
</svg>
